<svg xmlns="http://www.w3.org/2000/svg" width="22" height="22" viewBox="0 0 22 22">
  <g id="apps" transform="translate(-1.123 0.184)">
    <path id="Path_309" data-name="Path 309" d="M4.323,0a3,3,0,0,0-3,3A.563.563,0,1,0,2.448,3,1.875,1.875,0,1,1,4.323,4.875.563.563,0,0,0,4.323,6a3,3,0,1,0,0-6Z" transform="translate(-0.2 -0.184)" fill="#16395b"/>
    <path id="Path_310" data-name="Path 310" d="M118.425,0a3,3,0,1,0,3,3A3,3,0,0,0,118.425,0Zm0,4.875A1.875,1.875,0,1,1,120.3,3,1.877,1.877,0,0,1,118.425,4.875Z" transform="translate(-106.302 -0.184)" fill="#16395b"/>
    <path id="Path_311" data-name="Path 311" d="M232.527,6a3,3,0,1,0-3-3A3,3,0,0,0,232.527,6Zm0-4.875A1.875,1.875,0,1,1,230.652,3,1.877,1.877,0,0,1,232.527,1.125Z" transform="translate(-212.404 -0.184)" fill="#16395b"/>
    <path id="Path_312" data-name="Path 312" d="M4.323,115.425a3,3,0,1,0,3,3A3,3,0,0,0,4.323,115.425Zm0,4.875A1.875,1.875,0,1,1,6.2,118.425,1.877,1.877,0,0,1,4.323,120.3Z" transform="translate(-0.2 -107.609)" fill="#16395b"/>
    <path id="Path_313" data-name="Path 313" d="M120.862,117.862a.563.563,0,0,0-.563.563,1.875,1.875,0,1,1-1.875-1.875.563.563,0,1,0,0-1.125,3,3,0,1,0,3,3A.563.563,0,0,0,120.862,117.862Z" transform="translate(-106.302 -107.609)" fill="#16395b"/>
    <path id="Path_314" data-name="Path 314" d="M232.527,115.425a3,3,0,1,0,3,3A3,3,0,0,0,232.527,115.425Zm0,4.875a1.875,1.875,0,1,1,1.875-1.875A1.877,1.877,0,0,1,232.527,120.3Z" transform="translate(-212.404 -107.609)" fill="#16395b"/>
    <path id="Path_315" data-name="Path 315" d="M4.323,230.851a3,3,0,1,0,3,3A3,3,0,0,0,4.323,230.851Zm0,4.875A1.875,1.875,0,1,1,6.2,233.851,1.877,1.877,0,0,1,4.323,235.726Z" transform="translate(-0.2 -215.035)" fill="#16395b"/>
    <path id="Path_316" data-name="Path 316" d="M118.425,230.851a3,3,0,1,0,3,3A3,3,0,0,0,118.425,230.851Zm0,4.875a1.875,1.875,0,1,1,1.875-1.875A1.877,1.877,0,0,1,118.425,235.726Z" transform="translate(-106.302 -215.035)" fill="#16395b"/>
    <path id="Path_317" data-name="Path 317" d="M232.527,230.851a3,3,0,1,0,3,3A3,3,0,0,0,232.527,230.851Zm0,4.875a1.875,1.875,0,1,1,1.875-1.875A1.877,1.877,0,0,1,232.527,235.726Z" transform="translate(-212.404 -215.035)" fill="#16395b"/>
  </g>
</svg>
