<?xml version="1.0" encoding="utf-8"?>
<!-- Generator: Adobe Illustrator 23.0.1, SVG Export Plug-In . SVG Version: 6.00 Build 0)  -->
<svg version="1.1" id="Слой_1" xmlns="http://www.w3.org/2000/svg" xmlns:xlink="http://www.w3.org/1999/xlink" x="0px" y="0px"
	 viewBox="0 0 60 60" style="enable-background:new 0 0 60 60;" xml:space="preserve">
<style type="text/css">
	.st0{fill:#FFFFFF;}
</style>
<path class="st0" d="M50.9,30.6c-0.1,0.7-0.5,1.3-1.2,1.6L12.9,53.4c-1.7,1-3.8-0.2-3.8-2.2V34H14c0.3,0,0.6-0.2,0.6-0.5l2.9-8.5
	c0.2-0.6,1-0.6,1.3-0.1L25,37.3c0.1,0.3,0.6,0.3,0.6-0.1l3.9-12.1c0.2-0.4,0.8-0.6,1.2-0.3l7.3,5.9c0.1,0.1,0.1,0.1,0.2,0.1
	L50.9,30.6z M13.9,31.9l3.8-9.5c0.2-0.6,1-0.6,1.3-0.1L24.6,33c0.3,0.6,1.1,0.5,1.3-0.1l3.4-9.5c0.1-0.4,0.8-0.6,1.1-0.3l7.8,6.3
	c0.1,0.1,0.1,0.1,0.2,0.1l12.3-0.2c-0.2-0.6-0.5-1.1-1.1-1.5L12.9,6.6c-1.6-1-3.8,0.2-3.8,2.2v23.6h4.1
	C13.5,32.3,13.7,32.2,13.9,31.9z"/>
</svg>
