<svg id="Слой_1" data-name="Слой 1" xmlns="http://www.w3.org/2000/svg" viewBox="0 0 414.27685 542"><defs><style>.cls-1{fill:#244c83;}.cls-2{fill:#00d85d;}</style></defs><title>Footer_background_mobile</title><path class="cls-1" d="M0,25.343s21.57692,14.426,37.75961,8.57762S89.76,47.1769,104.21652,48.73646s48.3323-12.08664,68.83037-8.96751,24.16615,8.96751,41.42769,23.00361,28.05,24.56318,46.39037,9.3574,29.12884-32.7509,60.63115-30.41155,54.5896-3.509,69.90921-18.32491S414.27685,0,414.27685,0V542H0Z" transform="translate(0 0)"/><path class="cls-2" d="M253.562,94.653c-6.59447.00027-14.119-2.86856-24.04458-9.02955C209.5465,73.2267,202.06033,66.514,195.45547,60.591a136.15021,136.15021,0,0,0-14.124-11.44241c-2.44806-1.71542-4.65385-3.37229-6.6-4.83409-11.33663-8.51584-16.51052-12.40264-32.36983-.69447A103.61635,103.61635,0,0,0,128.136,56.68391c-7.72487,8.14809-12.82861,13.53177-25.47051,10.17136-6.5723-1.74672-11.47913-5.888-16.674-10.27227-9.70088-8.18749-19.73214-16.654-42.19358-11.27675-17.93614,4.29313-28.837.13922-34.82357-4.10156A25.68946,25.68946,0,0,1,.09452,30.70039a1.86383,1.86383,0,0,1,0-1.172c.12581-.3235.32965-.3235.45567-.00162h0A25.39432,25.39432,0,0,0,9.23628,39.67058c5.92981,4.166,16.729,8.23929,34.50169,3.985,22.59523-5.40823,32.69129,3.11246,42.45476,11.35229,5.16108,4.35573,10.03578,8.47,16.53909,10.19834,12.48121,3.317,17.52467-2.003,25.15912-10.05588A104.06788,104.06788,0,0,1,142.1835,42.02651c16.03868-11.8401,21.26928-7.91094,32.729.69664,1.94356,1.46018,4.1463,3.11462,6.58869,4.826a136.5315,136.5315,0,0,1,14.16695,11.47694c6.59068,5.91007,14.06089,12.6085,34.001,24.98605,25.90759,16.08169,33.96054,8.80426,51.60514-7.14037,4.04674-3.65693,8.63327-7.8014,14.035-12.1841C315.31,48.46081,317.40085,48.681,329.00843,49.90669a153.4205,153.4205,0,0,0,22.95911.92867c18.71159-.56875,34.385-14.30962,44.23838-25.73665A140.35555,140.35555,0,0,0,413.28637.17175c.14115-.27871.34362-.21126.45242.1519a1.8218,1.8218,0,0,1-.05923,1.162,141.34385,141.34385,0,0,1-17.18925,25.1018C386.57708,38.08925,370.807,51.92024,351.97511,52.493a153.64361,153.64361,0,0,1-22.99315-.93c-11.7756-1.24245-13.58568-1.43347-33.47829,14.70569-5.392,4.37434-9.97329,8.51422-14.0152,12.16683-8.83974,7.98783-15.22669,13.75949-22.77723,15.60252A21.61042,21.61042,0,0,1,253.562,94.653Z" transform="translate(0 0)"/><path class="cls-2" d="M234.59962,74c-18.897.00061-40.241-9.06511-58.02163-16.61684-5.27593-2.24075-10.25921-4.35718-14.61449-5.97816-12.85529-4.78484-23.70382-3.00884-33.27522-1.44287-6.59353,1.079-12.82144,2.09789-18.807.82554-2.54741-.54165-4.682-1.12828-6.74637-1.69545-9.49614-2.61-15.76957-4.33377-42.05937,5.42526-16.50868,6.12832-32.18185-1.32554-42.42288-8.6569A96.12969,96.12969,0,0,1,.1892,28.29632a1.95775,1.95775,0,0,1-.1601-1.23679c.0739-.4693.26543-.6766.42774-.46292A95.56275,95.56275,0,0,0,18.823,44.05874C29.00685,51.346,44.58931,58.754,60.99328,52.66519c26.36129-9.78518,32.66321-8.05386,42.20265-5.43226,2.061.56627,4.192,1.152,6.7326,1.69211,5.94388,1.26475,12.1514.24772,18.72327-.82736,9.59958-1.57053,20.48006-3.35048,33.39411,1.455,4.361,1.62311,9.347,3.74075,14.62585,5.98272C198.327,64.73276,225.27851,76.179,246.5845,70.71365c10.63723-2.72828,17.9787-7.24868,25.07859-11.62045,10.60738-6.53075,19.76849-12.1706,36.755-9.54688,29.064,4.49061,42.73982,6.01342,62.355-4.96417C390.52086,33.5307,413.30465.79581,413.53255.46632c.16-.22887.35363-.04346.43331.41763a2.02957,2.02957,0,0,1-.14443,1.2529c-.22854.3304-23.0897,33.17806-42.92546,44.27875-19.69049,11.01923-33.39348,9.494-62.51231,4.99578-16.90162-2.61278-26.02384,3.00489-36.586,9.50858-7.11882,4.383-14.47984,8.91557-25.156,11.65389A48.39927,48.39927,0,0,1,234.59962,74Z" transform="translate(0 0)"/></svg>